<svg width="19" height="18" viewBox="0 0 19 18" fill="none" xmlns="http://www.w3.org/2000/svg">
<path d="M4.97489 17.667H1.11689V6.05897H4.97489V17.667ZM3.07189 0.461972C2.79699 0.439355 2.52037 0.473532 2.25924 0.56238C1.99811 0.651228 1.75805 0.792845 1.55398 0.978428C1.34991 1.16401 1.18621 1.38959 1.07304 1.64114C0.959873 1.89269 0.899665 2.16483 0.896159 2.44064C0.892653 2.71645 0.945924 2.99003 1.05266 3.24438C1.1594 3.49872 1.31732 3.72839 1.5166 3.9191C1.71588 4.10981 1.95227 4.25748 2.21105 4.35294C2.46984 4.4484 2.7455 4.48959 3.02089 4.47397H3.04689C3.32319 4.49702 3.60128 4.46272 3.86369 4.37321C4.12611 4.2837 4.36719 4.14092 4.57181 3.95383C4.77644 3.76674 4.94018 3.53937 5.05278 3.286C5.16537 3.03264 5.22439 2.75873 5.22611 2.48147C5.22784 2.20422 5.17225 1.9296 5.06282 1.67485C4.95339 1.42009 4.79249 1.19071 4.59021 1.00108C4.38794 0.811454 4.14865 0.665682 3.88737 0.572909C3.62609 0.480137 3.34846 0.442368 3.07189 0.461972ZM7.11089 17.667H10.9689V11.185C10.954 10.8662 10.997 10.5474 11.0959 10.244C11.2402 9.83336 11.5079 9.47739 11.8624 9.2248C12.2168 8.97221 12.6407 8.83536 13.0759 8.83297C14.4759 8.83297 15.0309 9.89697 15.0309 11.458V17.667H18.8889V11.011C18.8889 7.44597 16.9889 5.78597 14.4469 5.78597C13.7478 5.75674 13.054 5.9197 12.441 6.25715C11.8279 6.59459 11.3192 7.09362 10.9699 7.69997V6.05897H7.11089C7.16189 7.14797 7.11089 17.668 7.11089 17.668V17.667Z" fill="white"/>
</svg>
