<svg width="74" height="74" viewBox="0 0 74 74" fill="none" xmlns="http://www.w3.org/2000/svg">
<path d="M17.6375 0.174805C15.025 0.174805 12.875 2.3248 12.875 4.9373C12.875 5.14355 12.9125 5.34355 12.9937 5.53731C11.9625 5.15605 10.8562 4.9373 9.69999 4.9373C4.45624 4.9373 0.174988 9.21856 0.174988 14.4623C0.174988 20.7248 5.33749 26.3748 10.1562 31.2498C12.5687 33.6873 14.95 35.9123 16.6687 37.7748C17.5312 38.6998 18.225 39.5436 18.6562 40.2061C19.1 40.8748 19.225 41.3623 19.225 41.4436C19.225 42.3436 18.5312 43.0311 17.6375 43.0311C17.0625 43.0248 16.5312 43.3248 16.2375 43.8186C15.9562 44.3123 15.9562 44.9248 16.2375 45.4186C16.5312 45.9123 17.0625 46.2123 17.6375 46.2061C19.3312 46.2061 20.8312 45.2811 21.6687 43.9248C23.3062 48.4248 25.2437 52.3248 27.5562 55.2311C28.4125 56.3186 29.35 57.2686 30.3312 58.0623V63.6686H25.5687C21.2062 63.6686 17.6375 67.2373 17.6375 71.606V73.1873H54.1437H55.7312V71.606C55.7312 67.2373 52.1562 63.6686 47.7937 63.6686H43.0312V57.9748C43.9812 57.2061 44.875 56.2936 45.7125 55.2561C48.0437 52.3373 50.0062 48.4123 51.6687 43.8811C52.5062 45.2623 54.0125 46.2061 55.7312 46.2061C56.3 46.2123 56.8312 45.9123 57.125 45.4186C57.4125 44.9248 57.4125 44.3123 57.125 43.8186C56.8312 43.3248 56.3 43.0248 55.7312 43.0311C54.8312 43.0311 54.1437 42.3436 54.1437 41.4436C54.1437 41.3623 54.2687 40.8748 54.7062 40.2061C55.1437 39.5436 55.8375 38.6998 56.7 37.7748C58.4125 35.9123 60.7937 33.6873 63.2062 31.2498C68.025 26.3748 73.1875 20.7248 73.1875 14.4623C73.1875 9.21856 68.9062 4.9373 63.6687 4.9373C62.5062 4.9373 61.4062 5.15605 60.375 5.53731C60.4562 5.34355 60.4937 5.14355 60.4937 4.9373C60.4937 2.3248 58.3375 0.174805 55.7312 0.174805H17.6375ZM17.6375 3.3498H55.7312C56.6312 3.3498 57.3187 4.0373 57.3187 4.9373C57.3187 5.83731 56.6312 6.5248 55.7312 6.5248H17.6375C16.7375 6.5248 16.05 5.83731 16.05 4.9373C16.05 4.0373 16.7375 3.3498 17.6375 3.3498ZM9.69999 8.11231C13.2125 8.11231 16.0312 10.9186 16.05 14.4311C16.05 14.4623 16.05 14.4936 16.05 14.5248C16.0562 14.5686 16.0562 14.5998 16.0562 14.6373C16.475 21.8936 17.5562 29.2311 19.225 35.8686C19.1437 35.7811 19.0812 35.6998 19 35.6186C17.1437 33.6186 14.7625 31.3998 12.4125 29.0186C7.70624 24.2623 3.34999 18.8311 3.34999 14.4623C3.34999 10.9373 6.17499 8.11231 9.69999 8.11231ZM63.6687 8.11231C67.1875 8.11231 70.0187 10.9373 70.0187 14.4623C70.0187 18.8311 65.6562 24.2623 60.95 29.0186C58.6 31.3998 56.2187 33.6186 54.3687 35.6186C54.275 35.7123 54.2 35.8061 54.1062 35.9123C55.7812 29.2998 56.875 21.9811 57.3 14.7311C57.3125 14.6373 57.3187 14.5561 57.3187 14.4623C57.3187 10.9373 60.1437 8.11231 63.6687 8.11231ZM19.15 9.6998H54.2187C54.05 20.8123 52.2375 32.6686 49.0625 41.7873C47.4062 46.5561 45.4 50.5623 43.2312 53.2748C41.0625 55.9811 38.85 57.3186 36.625 57.3186C34.3937 57.3186 32.2 55.981 30.0375 53.2561C27.875 50.5373 25.8812 46.5186 24.2375 41.7373C21.0937 32.606 19.3062 20.7498 19.15 9.6998ZM39.8562 59.8623V63.6686H33.5062V59.8936C34.5062 60.2686 35.5437 60.4935 36.625 60.4935C37.75 60.4935 38.8187 60.2561 39.8562 59.8623ZM25.5687 66.8436H31.6562C31.825 66.8748 32 66.8748 32.1687 66.8436H41.175C41.35 66.8748 41.525 66.8748 41.6937 66.8436H47.7937C49.8187 66.8436 51.2125 68.2498 51.9062 70.0185H21.4625C22.1562 68.2498 23.5437 66.8436 25.5687 66.8436Z" fill="black"/>
<path d="M40.1022 19.616C40.1022 20.5693 39.7642 23.048 39.0882 27.052C38.4295 31.056 38.1002 33.916 38.1002 35.632C38.1002 37.3307 38.4295 38.5353 39.0882 39.246C38.5509 39.87 37.9529 40.182 37.2942 40.182C35.9422 40.182 35.2662 39.038 35.2662 36.75C35.2662 35.9527 35.5695 33.5433 36.1762 29.522C36.8002 25.5007 37.1122 22.3287 37.1122 20.006C36.4189 21.0287 35.7429 21.852 35.0842 22.476C34.4255 23.1 33.9315 23.4813 33.6022 23.62C33.2902 23.7587 32.9782 23.828 32.6662 23.828C32.3542 23.828 32.0422 23.724 31.7302 23.516C31.4182 23.2907 31.0802 22.8053 30.7162 22.06C31.4442 21.8693 32.0855 21.592 32.6402 21.228C33.1948 20.864 33.7755 20.4047 34.3822 19.85C34.9889 19.278 35.4915 18.7493 35.8902 18.264C36.3062 17.7787 36.6875 17.4407 37.0342 17.25C37.3809 17.042 37.8315 16.938 38.3862 16.938C38.9409 16.938 39.3655 17.146 39.6602 17.562C39.9549 17.978 40.1022 18.6627 40.1022 19.616Z" fill="url(#paint0_linear_339_968)"/>
<defs>
<linearGradient id="paint0_linear_339_968" x1="37.0002" y1="17.4444" x2="37.0002" y2="39.2143" gradientUnits="userSpaceOnUse">
<stop offset="0.0001" stop-color="#FEDD22"/>
<stop offset="1" stop-color="#F4913F"/>
</linearGradient>
</defs>
</svg>
