<svg width="80" height="80" viewBox="0 0 80 80" fill="none" xmlns="http://www.w3.org/2000/svg">
<path d="M23.0811 7.40723C17.7832 7.40723 12.5 9.43848 8.50098 13.501C4.50195 17.5 2.5 22.6221 2.5 28.2471C2.5 33.75 4.49707 38.999 8.37402 42.876L13.4766 47.9492C12.6855 49.9805 13.1055 52.373 14.7412 54.0088C15.8447 55.1123 17.2998 55.6641 18.75 55.6641C18.9648 55.6641 19.1797 55.6299 19.3945 55.6055C19.2041 57.2656 19.7217 58.9893 20.9912 60.2588C22.0947 61.3623 23.5498 61.9141 25 61.9141C25.2148 61.9141 25.4297 61.8799 25.6445 61.8555C25.4541 63.5156 25.9717 65.2393 27.2412 66.5088C28.3447 67.6123 29.7998 68.1641 31.25 68.1641C31.4648 68.1641 31.6797 68.1299 31.8945 68.1055C31.7041 69.7656 32.2217 71.4893 33.4912 72.7588C34.5947 73.8623 36.0498 74.4141 37.5 74.4141C38.9502 74.4141 40.4053 73.8623 41.5088 72.7588L47.8906 66.3818C48.1592 66.1084 48.4033 65.8105 48.6084 65.498C49.4482 65.9717 50.3857 66.25 51.3818 66.25C52.8955 66.25 54.3164 65.6592 55.3906 64.5898C56.46 63.5205 57.0508 62.0947 57.0508 60.5811C57.0508 60.3613 57.0117 60.1514 56.9873 59.9365C57.2021 59.9609 57.4121 60 57.6318 60C59.1455 60 60.5664 59.4092 61.6406 58.3398C62.71 57.2705 63.3008 55.8447 63.3008 54.3311C63.3008 54.1113 63.2617 53.9014 63.2373 53.6865C63.4521 53.7109 63.6621 53.75 63.8818 53.75C65.3955 53.75 66.8164 53.1592 67.8906 52.0898C68.9014 51.0791 69.5312 49.585 69.6143 47.9932C69.6729 46.9824 69.4775 46.04 69.1211 45.2539L71.499 42.876C75.376 38.877 77.5 33.75 77.5 28.2471C77.5 22.6221 75.376 17.5 71.499 13.501C63.374 5.37598 50.249 5.37598 42.251 13.501L41.6699 14.082C41.6553 14.0967 41.6357 14.1016 41.6211 14.1162C41.6016 14.1309 40.9668 14.7656 39.9658 15.7178L37.749 13.501C33.6865 9.43848 28.374 7.40723 23.0811 7.40723ZM56.875 9.90723C61.5332 9.90723 66.1865 11.6846 69.751 15.249C73.125 18.75 75 23.374 75 28.2471C75 33.125 73.125 37.627 69.624 41.001L67.4512 43.1836L57.1338 32.8711V32.8662L54.6143 30.3516C50.5371 26.2695 44.2529 25.5273 39.3359 28.5547L35.6836 30.8008C33.0908 32.3975 29.7412 32.1924 27.3633 30.2881C27.29 30.2246 27.2754 30.1514 27.2803 30.0977C27.2803 30.0439 27.2998 29.9707 27.3828 29.917C27.417 29.8877 27.4561 29.8584 27.4902 29.8291L35.7471 22.9004C38.2617 20.791 40.7666 18.4277 42.1875 17.0508L42.251 16.9971L42.4561 16.7969C43.0273 16.2402 43.374 15.8936 43.3838 15.8789C43.3984 15.8643 43.4033 15.8447 43.418 15.8301L43.999 15.249C47.5635 11.6846 52.2168 9.90723 56.875 9.90723ZM23.0029 10C27.627 10 32.373 11.7529 35.874 15.376L38.0371 17.5391C36.8604 18.6279 35.5029 19.8437 34.1406 20.9863L25.9277 27.8809C25.2344 28.374 24.8145 29.1357 24.7803 29.9902C24.7412 30.8691 25.1123 31.6895 25.8008 32.2412C29.0039 34.8047 33.501 35.083 36.9971 32.9297L40.6445 30.6836C44.5703 28.2715 49.5898 28.8574 52.8516 32.1143L52.8662 32.1338L66.6162 45.8838C66.9043 46.1719 67.1729 46.8945 67.1191 47.8564C67.0654 48.8428 66.7041 49.7412 66.1182 50.3223C64.9219 51.5186 62.8369 51.5186 61.6406 50.3223L52.1338 40.8154C51.6455 40.3271 50.8545 40.3271 50.3662 40.8154C49.8779 41.3037 49.8779 42.0947 50.3662 42.583L59.8682 52.0898C60.4688 52.6904 60.8008 53.4863 60.8008 54.3311C60.8008 55.1758 60.4688 55.9717 59.8682 56.5723C58.6719 57.7686 56.5869 57.7686 55.3906 56.5723L45.8838 47.0654C45.3955 46.5771 44.6045 46.5771 44.1162 47.0654C43.6279 47.5537 43.6279 48.3447 44.1162 48.833L53.6182 58.3398C54.2188 58.9404 54.5508 59.7363 54.5508 60.5811C54.5508 61.4258 54.2188 62.2217 53.6182 62.8223C52.5293 63.916 50.6982 63.999 49.4775 63.0957C49.5068 62.8564 49.5508 62.6172 49.5508 62.3682C49.5508 60.8545 48.96 59.4336 47.8906 58.3594C46.8164 57.29 45.3955 56.6992 43.8818 56.6992C43.6621 56.6992 43.4521 56.7383 43.2373 56.7627C43.2617 56.5479 43.3008 56.3379 43.3008 56.1182C43.3008 54.6045 42.71 53.1836 41.6406 52.1094C40.5664 51.04 39.1455 50.4492 37.6318 50.4492C37.4121 50.4492 37.2021 50.4883 36.9873 50.5127C37.0117 50.2979 37.0508 50.0879 37.0508 49.8682C37.0508 48.3545 36.46 46.9336 35.3906 45.8594C34.3164 44.79 32.8955 44.1992 31.3818 44.1992C31.1621 44.1992 30.9521 44.2383 30.7373 44.2627C30.7617 44.0479 30.8008 43.8379 30.8008 43.6182C30.8008 42.1045 30.21 40.6836 29.1406 39.6094C28.0664 38.54 26.6455 37.9492 25.1318 37.9492C23.6133 37.9492 22.1924 38.54 21.1182 39.6094L14.9414 45.7959L10.127 41.001C6.74805 37.627 4.75098 32.998 4.75098 28.125C4.75098 23.252 6.74805 18.75 10.249 15.376C13.75 11.7529 18.374 10 23.0029 10ZM10.957 27.4268L8.45703 27.5537C7.76856 27.5879 7.23633 28.1738 7.26562 28.8623C7.29981 29.5312 7.85156 30.0537 8.51562 30.0537C8.53516 30.0537 8.55957 30.0488 8.5791 30.0488L11.0742 29.9268C11.7676 29.8926 12.2949 29.3066 12.2656 28.6182C12.2314 27.9297 11.626 27.3975 10.957 27.4268ZM12.4609 32.8174C12.3047 32.8369 12.1436 32.8906 11.9922 32.9736L9.82422 34.2236C9.22852 34.5703 9.02344 35.3369 9.36523 35.9326C9.59961 36.333 10.0195 36.5576 10.4492 36.5576C10.6641 36.5576 10.8789 36.5039 11.0742 36.3916L13.2422 35.1416C13.8428 34.7949 14.0479 34.0283 13.7012 33.4326C13.4424 32.9834 12.9492 32.7588 12.4609 32.8174ZM16.4893 37.2656C16.167 37.2656 15.8496 37.3877 15.6055 37.6367L13.8428 39.4043C13.3545 39.8926 13.3545 40.6836 13.8428 41.1719C14.0869 41.416 14.4043 41.5381 14.7266 41.5381C15.0439 41.5381 15.3662 41.416 15.6104 41.1719L17.3779 39.3994C17.8613 38.9111 17.8613 38.1201 17.373 37.6318C17.1289 37.3877 16.8115 37.2656 16.4893 37.2656ZM25.1318 40.4492C25.9766 40.4492 26.7725 40.7812 27.3682 41.3818C27.9688 41.9775 28.3008 42.7734 28.3008 43.6182C28.3008 44.4678 27.9688 45.2637 27.3682 45.8594L20.9912 52.2412C19.7559 53.4766 17.7441 53.4766 16.5088 52.2412C15.2734 51.0059 15.2734 48.9941 16.5088 47.7588L22.8906 41.3818C23.4863 40.7812 24.2822 40.4492 25.1318 40.4492ZM31.3818 46.6992C32.2266 46.6992 33.0225 47.0312 33.6182 47.6318C34.2188 48.2275 34.5508 49.0234 34.5508 49.8682C34.5508 50.7178 34.2188 51.5137 33.6182 52.1094L27.2412 58.4912C26.0059 59.7266 23.9941 59.7266 22.7588 58.4912C21.5234 57.2559 21.5234 55.2441 22.7588 54.0088L29.1406 47.6318C29.7363 47.0312 30.5322 46.6992 31.3818 46.6992ZM37.6318 52.9492C38.4766 52.9492 39.2725 53.2812 39.8682 53.8818C40.4688 54.4775 40.8008 55.2734 40.8008 56.1182C40.8008 56.9678 40.4688 57.7637 39.8682 58.3594L33.4912 64.7412C32.2559 65.9766 30.2441 65.9766 29.0088 64.7412C27.7734 63.5059 27.7734 61.4941 29.0088 60.2588L35.3906 53.8818C35.9863 53.2812 36.7822 52.9492 37.6318 52.9492ZM43.8818 59.1992C44.7266 59.1992 45.5225 59.5312 46.1182 60.1318C46.7188 60.7275 47.0508 61.5234 47.0508 62.3682C47.0508 63.2178 46.7188 64.0137 46.1182 64.6094L39.7412 70.9912C38.5059 72.2266 36.4941 72.2266 35.2588 70.9912C34.0234 69.7559 34.0234 67.7441 35.2588 66.5088L41.6406 60.1318C42.2363 59.5312 43.0322 59.1992 43.8818 59.1992Z" fill="black"/>
<path d="M23.0811 7.40723C17.7832 7.40723 12.5 9.43848 8.50098 13.501C4.50195 17.5 2.5 22.6221 2.5 28.2471C2.5 33.75 4.49707 38.999 8.37402 42.876L13.4766 47.9492L14.9414 45.7959L10.127 41.001C6.74805 37.627 4.75098 32.998 4.75098 28.125C4.75098 23.252 6.74805 18.75 10.249 15.376C13.75 11.7529 18.374 10 23.0029 10C27.627 10 32.373 11.7529 35.874 15.376L38.0371 17.5391L39.9658 15.7178L37.749 13.501C33.6865 9.43848 28.374 7.40723 23.0811 7.40723Z" fill="url(#paint0_linear_339_1017)"/>
<path fill-rule="evenodd" clip-rule="evenodd" d="M8.45703 27.5537L10.957 27.4268C11.626 27.3975 12.2314 27.9297 12.2656 28.6182C12.2949 29.3066 11.7676 29.8926 11.0742 29.9268L8.5791 30.0488C8.56934 30.0488 8.55835 30.05 8.54736 30.0513C8.53638 30.0525 8.52539 30.0537 8.51562 30.0537C7.85156 30.0537 7.29981 29.5312 7.26562 28.8623C7.23633 28.1738 7.76856 27.5879 8.45703 27.5537ZM11.9922 32.9736C12.1436 32.8906 12.3047 32.8369 12.4609 32.8174C12.9492 32.7588 13.4424 32.9834 13.7012 33.4326C14.0479 34.0283 13.8428 34.7949 13.2422 35.1416L11.0742 36.3916C10.8789 36.5039 10.6641 36.5576 10.4492 36.5576C10.0195 36.5576 9.59961 36.333 9.36523 35.9326C9.02344 35.3369 9.22852 34.5703 9.82422 34.2236L11.9922 32.9736ZM15.6055 37.6367C15.8496 37.3877 16.167 37.2656 16.4893 37.2656C16.8115 37.2656 17.1289 37.3877 17.373 37.6318C17.8613 38.1201 17.8613 38.9111 17.3779 39.3994L15.6104 41.1719C15.3662 41.416 15.0439 41.5381 14.7266 41.5381C14.4043 41.5381 14.0869 41.416 13.8428 41.1719C13.3545 40.6836 13.3545 39.8926 13.8428 39.4043L15.6055 37.6367Z" fill="url(#paint1_linear_339_1017)"/>
<path d="M52.1338 40.8154C51.6455 40.3271 50.8545 40.3271 50.3662 40.8154C49.8779 41.3037 49.8779 42.0947 50.3662 42.583L55.6568 47.8763L59.1885 47.8702L52.1338 40.8154Z" fill="url(#paint2_linear_339_1017)"/>
<path d="M45.8838 47.0654C45.3955 46.5771 44.6045 46.5771 44.1162 47.0654C43.8854 47.2962 43.7637 47.5947 43.7511 47.8969L46.7101 47.8917L45.8838 47.0654Z" fill="url(#paint3_linear_339_1017)"/>
<path fill-rule="evenodd" clip-rule="evenodd" d="M48.6084 65.498C49.4482 65.9717 50.3857 66.25 51.3818 66.25C52.8955 66.25 54.3164 65.6592 55.3906 64.5898C56.46 63.5205 57.0508 62.0947 57.0508 60.5811C57.0508 60.4217 57.0302 60.2675 57.0096 60.1129C57.0018 60.0543 56.994 59.9956 56.9873 59.9365C57.0464 59.9432 57.105 59.951 57.1637 59.9589C57.3183 59.9795 57.4725 60 57.6318 60C59.1455 60 60.5664 59.4092 61.6406 58.3398C62.71 57.2705 63.3008 55.8447 63.3008 54.3311C63.3008 54.1717 63.2802 54.0175 63.2596 53.8629C63.2518 53.8043 63.244 53.7456 63.2373 53.6865C63.2964 53.6932 63.355 53.701 63.4137 53.7089C63.5683 53.7295 63.7225 53.75 63.8818 53.75C65.3955 53.75 66.8164 53.1592 67.8906 52.0898C68.9014 51.0791 69.5312 49.585 69.6143 47.9932C69.6729 46.9824 69.4775 46.04 69.1211 45.2539L67.4512 43.1836L57.1338 32.8711V32.8662L54.6143 30.3516C54.6143 30.3516 54.154 30.3021 53.5 31C52.846 31.6979 52.8516 32.1143 52.8516 32.1143L52.8662 32.1338L66.6162 45.8838C66.9043 46.1719 67.1729 46.8945 67.1191 47.8564C67.0654 48.8428 66.7041 49.7412 66.1182 50.3223C64.9219 51.5186 62.8369 51.5186 61.6406 50.3223L59.1885 47.8702L55.6568 47.8763L59.8682 52.0898C60.4688 52.6904 60.8008 53.4863 60.8008 54.3311C60.8008 55.1758 60.4688 55.9717 59.8682 56.5723C58.6719 57.7686 56.5869 57.7686 55.3906 56.5723L46.7101 47.8917L43.7511 47.8969C43.737 48.2339 43.8587 48.5755 44.1162 48.833L53.6182 58.3398C54.2188 58.9404 54.5508 59.7363 54.5508 60.5811C54.5508 61.4258 54.2188 62.2217 53.6182 62.8223C52.5293 63.916 50.6982 63.999 49.4775 63.0957L48.6084 65.498Z" fill="url(#paint4_linear_339_1017)"/>
<defs>
<linearGradient id="paint0_linear_339_1017" x1="40" y1="10.6763" x2="40" y2="59.9454" gradientUnits="userSpaceOnUse">
<stop offset="0.0001" stop-color="#FEDD22"/>
<stop offset="1" stop-color="#F4913F"/>
</linearGradient>
<linearGradient id="paint1_linear_339_1017" x1="40" y1="10.6763" x2="40" y2="59.9454" gradientUnits="userSpaceOnUse">
<stop offset="0.0001" stop-color="#FEDD22"/>
<stop offset="1" stop-color="#F4913F"/>
</linearGradient>
<linearGradient id="paint2_linear_339_1017" x1="40" y1="10.6763" x2="40" y2="59.9454" gradientUnits="userSpaceOnUse">
<stop offset="0.0001" stop-color="#FEDD22"/>
<stop offset="1" stop-color="#F4913F"/>
</linearGradient>
<linearGradient id="paint3_linear_339_1017" x1="40" y1="10.6763" x2="40" y2="59.9454" gradientUnits="userSpaceOnUse">
<stop offset="0.0001" stop-color="#FEDD22"/>
<stop offset="1" stop-color="#F4913F"/>
</linearGradient>
<linearGradient id="paint4_linear_339_1017" x1="40" y1="10.6763" x2="40" y2="59.9454" gradientUnits="userSpaceOnUse">
<stop offset="0.0001" stop-color="#FEDD22"/>
<stop offset="1" stop-color="#F4913F"/>
</linearGradient>
</defs>
</svg>
