<svg width="80" height="80" viewBox="0 0 80 80" fill="none" xmlns="http://www.w3.org/2000/svg">
<path d="M15.875 6.35001C9.76876 6.35001 4.76251 11.3563 4.76251 17.4625V22.225C4.76251 23.0938 5.47501 23.8125 6.35001 23.8125H14.2875V71.4313C14.2875 72.3 15 73.0188 15.875 73.0188H38.0938V69.8438H17.4625V23.8125H47.6188C48.4938 23.8125 49.2063 23.0938 49.2063 22.225V17.4625C49.2063 13.0875 52.7688 9.52501 57.1438 9.52501C57.1938 9.52501 57.2438 9.52501 57.2938 9.52501C61.5938 9.60626 65.0813 13.1375 65.0813 17.4625V69.8438H57.1438V73.0188H66.6688C67.5438 73.0188 68.2563 72.3 68.2563 71.4313V17.4625C68.2563 11.4375 63.3813 6.48126 57.3938 6.35001C57.3125 6.35001 57.225 6.35001 57.1438 6.35001H15.875ZM15.875 9.52501H49.4563C47.3625 11.5438 46.0313 14.3438 46.0313 17.4625V20.6375H7.93751V17.4625C7.93751 13.0875 11.5 9.52501 15.875 9.52501ZM25.3938 28.5688V31.7438H57.1438V28.5688H25.3938ZM25.3938 38.0938V41.2688H57.1438V38.0938H25.3938ZM47.6188 47.6188C46.3938 47.6188 45.3813 48.3 44.6438 49.2563C43.5375 49.0125 42.35 49.0688 41.3688 49.85C40.3938 50.6313 40.1438 51.8375 40.1813 52.975C39.15 53.5375 38.3 54.3875 38.0938 55.6063C37.8938 56.8063 38.4375 57.875 39.1875 58.7313C38.7375 59.8563 38.6938 61.1188 39.2875 62.1063C39.3938 62.2813 39.5438 62.4 39.6813 62.55V76.1875C39.675 76.7938 40.0125 77.3438 40.55 77.6188C41.0813 77.8875 41.7313 77.8375 42.2125 77.4813L47.6188 73.4125L53.025 77.4813C53.5125 77.8375 54.1563 77.8875 54.6875 77.6188C55.225 77.3438 55.5625 76.7938 55.5563 76.1875V62.55C55.6938 62.4 55.85 62.2813 55.95 62.1063C56.6438 60.9563 56.4938 59.7813 56.05 58.7313C56.8 57.875 57.3438 56.8063 57.1438 55.6063C56.9375 54.3875 56.0875 53.5375 55.0625 52.975C55.0938 51.8375 54.8438 50.6313 53.8688 49.85C52.8875 49.0688 51.7 49.0125 50.5938 49.2563C49.875 48.3438 48.8625 47.6188 47.6188 47.6188ZM50.7938 49.5563C50.8625 49.6063 50.9938 49.7 50.9438 49.65L50.8938 49.7C50.8625 49.65 50.825 49.6063 50.7938 49.5563ZM47.6188 50.7938C48.125 50.7938 48.175 50.8875 48.3125 51.2875C48.3938 51.5313 48.5313 51.7563 48.7125 51.9375C48.7938 52.0125 48.8875 52.1188 49.3063 52.3313C49.7188 52.5438 50.0688 52.5313 50.15 52.5313C50.4375 52.5438 50.7375 52.475 50.9938 52.3313C51.225 52.1875 51.6563 52.1438 51.8875 52.3313C52.15 52.55 52.15 52.625 51.9813 53.125C51.925 53.3 51.8875 53.4875 51.8875 53.6688C51.8875 53.8875 51.9938 53.9188 52.0813 54.1188C52.1375 54.8313 52.6688 55.425 53.375 55.5563C53.6188 55.6 53.925 55.9 53.9688 56.15C54.0125 56.425 53.8563 56.75 53.6188 56.8938C53.1625 57.1875 52.875 57.6875 52.875 58.2313V58.7313C52.8688 59.0625 52.975 59.4 53.175 59.675C53.2188 59.7375 53.2875 60.3688 53.225 60.4688C53.0813 60.7 52.75 60.8563 52.4813 60.8125C51.9 60.7063 51.3 60.9375 50.9438 61.4063C50.9438 61.425 50.9438 61.4375 50.9438 61.4563C50.8875 61.5 50.9125 61.4938 50.8438 61.5563C50.825 61.575 50.8125 61.5375 50.7938 61.5563C50.475 61.8563 50.3063 62.2625 50.3 62.7C50.3 63.1188 50.3 63.125 49.95 63.2438C49.8813 63.275 49.8125 63.3063 49.75 63.3438C49.7375 63.3375 49.7813 63.3438 49.7 63.3438C49.6 63.3438 49.2875 63.225 49.0563 62.9938C48.7563 62.7 48.3375 62.5375 47.9188 62.55H47.3188C46.9 62.5375 46.4813 62.7 46.1813 62.9938C45.9188 63.2563 45.6375 63.3625 45.2875 63.2438C45.0938 63.1375 44.9375 62.9188 44.9375 62.7C44.9375 62.3938 44.7938 61.9875 44.5938 61.7063C44.4125 61.45 44.25 61.3313 44.1438 61.2625C43.7813 60.8938 43.2688 60.725 42.7563 60.8125C42.4875 60.8563 42.1563 60.7 42.0125 60.4688C41.825 60.15 41.7688 60.0313 42.0125 59.725C42.2375 59.4438 42.3625 59.0875 42.3625 58.7313V58.2313C42.3625 57.6875 42.075 57.1875 41.6188 56.8938C41.3813 56.75 41.225 56.425 41.2688 56.15C41.3125 55.9 41.6188 55.6 41.8625 55.5563C42.575 55.425 43.1 54.8313 43.1563 54.1188C43.2438 53.9188 43.3563 53.8875 43.3563 53.6688C43.3563 53.4875 43.3188 53.3 43.2563 53.125C43.0875 52.625 43.0875 52.55 43.3563 52.3313C43.5813 52.1438 44.0125 52.1875 44.2438 52.3313C44.7375 52.6188 45.3438 52.6188 45.8313 52.3313C45.85 52.3313 45.8625 52.3313 45.8813 52.3313C45.9 52.3125 45.9125 52.3 45.9313 52.2813C45.9625 52.2688 46 52.25 46.0313 52.2313C46.45 52.0563 46.775 51.7188 46.925 51.2875C47.0063 51.0438 47.3688 50.7938 47.6188 50.7938ZM42.8563 65.1813C43.2188 65.6375 43.65 66.0063 44.1938 66.2188C44.2125 66.2375 44.225 66.25 44.2438 66.2688C45.45 66.675 46.6063 66.3188 47.5688 65.725C47.5813 65.7188 47.6063 65.7313 47.6188 65.725H47.9188C48.4813 66.05 48.9813 66.5188 49.7 66.5188C49.975 66.5188 50.5188 66.4 50.9938 66.2188C51.0188 66.1938 51.0625 66.1813 51.0938 66.1688C51.125 66.1563 51.1625 66.1875 51.1875 66.1688V66.1188C51.6813 65.9188 52.0688 65.6063 52.3813 65.2313V73.0188L48.5625 70.1375C48.0063 69.725 47.2375 69.725 46.675 70.1375L42.8563 73.0188V65.1813Z" fill="black"/>
<path d="M25.3937 28.5688V31.7438H57.1437V28.5688H25.3937ZM25.3937 38.0938V41.2688H57.1437V38.0938H25.3937ZM47.6187 47.6188C46.3937 47.6188 45.3812 48.3 44.6437 49.2563C43.5375 49.0125 42.35 49.0688 41.3687 49.85C40.3937 50.6313 40.1437 51.8375 40.1812 52.975C39.15 53.5375 38.3 54.3875 38.0937 55.6063C37.8937 56.8063 38.4375 57.875 39.1875 58.7313C38.7375 59.8563 38.6937 61.1188 39.2875 62.1063C39.3937 62.2813 39.5437 62.4 39.6812 62.55V76.1875C39.675 76.7938 40.0125 77.3438 40.55 77.6188C41.0812 77.8875 41.7312 77.8375 42.2125 77.4813L47.6187 73.4125L53.025 77.4813C53.5125 77.8375 54.1562 77.8875 54.6875 77.6188C55.225 77.3438 55.5625 76.7938 55.5562 76.1875V62.55C55.6937 62.4 55.85 62.2813 55.95 62.1063C56.6437 60.9563 56.4937 59.7813 56.05 58.7313C56.8 57.875 57.3437 56.8063 57.1437 55.6063C56.9375 54.3875 56.0875 53.5375 55.0625 52.975C55.0937 51.8375 54.8437 50.6313 53.8687 49.85C52.8875 49.0688 51.7 49.0125 50.5937 49.2563C49.875 48.3438 48.8625 47.6188 47.6187 47.6188ZM50.7937 49.5563C50.8625 49.6063 50.9937 49.7 50.9437 49.65L50.8937 49.7C50.8625 49.65 50.825 49.6063 50.7937 49.5563ZM47.6187 50.7938C48.125 50.7938 48.175 50.8875 48.3125 51.2875C48.3937 51.5313 48.5312 51.7563 48.7125 51.9375C48.7937 52.0125 48.8875 52.1188 49.3062 52.3313C49.7187 52.5438 50.0687 52.5313 50.15 52.5313C50.4375 52.5438 50.7375 52.475 50.9937 52.3313C51.225 52.1875 51.6562 52.1438 51.8875 52.3313C52.15 52.55 52.15 52.625 51.9812 53.125C51.925 53.3 51.8875 53.4875 51.8875 53.6688C51.8875 53.8875 51.9937 53.9188 52.0812 54.1188C52.1375 54.8313 52.6687 55.425 53.375 55.5563C53.6187 55.6 53.925 55.9 53.9687 56.15C54.0125 56.425 53.8562 56.75 53.6187 56.8938C53.1625 57.1875 52.875 57.6875 52.875 58.2313V58.7313C52.8687 59.0625 52.975 59.4 53.175 59.675C53.2187 59.7375 53.2875 60.3688 53.225 60.4688C53.0812 60.7 52.75 60.8563 52.4812 60.8125C51.9 60.7063 51.3 60.9375 50.9437 61.4063C50.9437 61.425 50.9437 61.4375 50.9437 61.4563C50.8875 61.5 50.9125 61.4938 50.8437 61.5563C50.825 61.575 50.8125 61.5375 50.7937 61.5563C50.475 61.8563 50.3062 62.2625 50.3 62.7C50.3 63.1188 50.3 63.125 49.95 63.2438C49.8812 63.275 49.8125 63.3063 49.75 63.3438C49.7375 63.3375 49.7812 63.3438 49.7 63.3438C49.6 63.3438 49.2875 63.225 49.0562 62.9938C48.7562 62.7 48.3375 62.5375 47.9187 62.55H47.3187C46.9 62.5375 46.4812 62.7 46.1812 62.9938C45.9187 63.2563 45.6375 63.3625 45.2875 63.2438C45.0937 63.1375 44.9375 62.9188 44.9375 62.7C44.9375 62.3938 44.7937 61.9875 44.5937 61.7063C44.4125 61.45 44.25 61.3313 44.1437 61.2625C43.7812 60.8938 43.2687 60.725 42.7562 60.8125C42.4875 60.8563 42.1562 60.7 42.0125 60.4688C41.825 60.15 41.7687 60.0313 42.0125 59.725C42.2375 59.4438 42.3625 59.0875 42.3625 58.7313V58.2313C42.3625 57.6875 42.075 57.1875 41.6187 56.8938C41.3812 56.75 41.225 56.425 41.2687 56.15C41.3125 55.9 41.6187 55.6 41.8625 55.5563C42.575 55.425 43.1 54.8313 43.1562 54.1188C43.2437 53.9188 43.3562 53.8875 43.3562 53.6688C43.3562 53.4875 43.3187 53.3 43.2562 53.125C43.0875 52.625 43.0875 52.55 43.3562 52.3313C43.5812 52.1438 44.0125 52.1875 44.2437 52.3313C44.7375 52.6188 45.3437 52.6188 45.8312 52.3313C45.85 52.3313 45.8625 52.3313 45.8812 52.3313C45.9 52.3125 45.9125 52.3 45.9312 52.2813C45.9625 52.2688 46 52.25 46.0312 52.2313C46.45 52.0563 46.775 51.7188 46.925 51.2875C47.0062 51.0438 47.3687 50.7938 47.6187 50.7938ZM42.8562 65.1813C43.2187 65.6375 43.65 66.0063 44.1937 66.2188C44.2125 66.2375 44.225 66.25 44.2437 66.2688C45.45 66.675 46.6062 66.3188 47.5687 65.725C47.5812 65.7188 47.6062 65.7313 47.6187 65.725H47.9187C48.4812 66.05 48.9812 66.5188 49.7 66.5188C49.975 66.5188 50.5187 66.4 50.9937 66.2188C51.0187 66.1938 51.0625 66.1813 51.0937 66.1688C51.125 66.1563 51.1625 66.1875 51.1875 66.1688V66.1188C51.6812 65.9188 52.0687 65.6063 52.3812 65.2313V73.0188L48.5625 70.1375C48.0062 69.725 47.2375 69.725 46.675 70.1375L42.8562 73.0188V65.1813Z" fill="url(#paint0_linear_339_1004)"/>
<path d="M25.3937 28.5688V31.7438H57.1437V28.5688H25.3937Z" fill="black"/>
<path d="M25.3937 28.5688V31.7438H57.1437V28.5688H25.3937ZM25.3937 38.0938V41.2688H57.1437V38.0938H25.3937Z" fill="black"/>
<defs>
<linearGradient id="paint0_linear_339_1004" x1="41.2896" y1="31.3033" x2="41.2896" y2="72.516" gradientUnits="userSpaceOnUse">
<stop offset="0.0001" stop-color="#FEDD22"/>
<stop offset="1" stop-color="#F4913F"/>
</linearGradient>
</defs>
</svg>
