<svg width="96" height="96" viewBox="0 0 96 96" fill="none" xmlns="http://www.w3.org/2000/svg">
<path d="M11.0856 78.6165C6.15825 72.693 2.73122 65.6707 1.09445 58.1439C-0.54232 50.6171 -0.340685 42.8071 1.68229 35.3745C3.70527 27.942 7.49009 21.1057 12.7166 15.4438C17.943 9.78198 24.4574 5.46117 31.7086 2.84693C38.9598 0.232677 46.7345 -0.598098 54.375 0.424879C62.0155 1.44786 69.297 4.29449 75.6035 8.72397C81.9101 13.1535 87.0562 19.0355 90.6065 25.8724C94.1567 32.7094 96.0067 40.3002 96 48.0026C95.9974 59.1998 92.0483 70.0384 84.8457 78.6165L84.9143 78.6748C84.6742 78.9628 84.3997 79.2096 84.1527 79.4941C83.8439 79.8473 83.5111 80.1798 83.192 80.5226C82.2313 81.5648 81.2432 82.5658 80.207 83.5052C79.8913 83.7931 79.5654 84.0605 79.2463 84.3348C78.1484 85.281 77.0196 86.1791 75.8496 87.0156C75.6986 87.1185 75.5614 87.2522 75.4104 87.3585V87.3173C67.3746 92.9676 57.7883 96 47.9622 96C38.1362 96 28.5499 92.9676 20.5141 87.3173V87.3585C20.3631 87.2522 20.2293 87.1185 20.0749 87.0156C18.9083 86.1757 17.7761 85.281 16.6782 84.3348C16.3591 84.0605 16.0332 83.7897 15.7175 83.5052C14.6813 82.5624 13.6932 81.5648 12.7325 80.5226C12.4134 80.1798 12.084 79.8473 11.7718 79.4941C11.5282 79.2096 11.2503 78.9628 11.0101 78.6714L11.0856 78.6165ZM47.9657 20.577C44.912 20.577 41.9269 21.4818 39.3879 23.1769C36.8489 24.872 34.8699 27.2814 33.7013 30.1003C32.5328 32.9192 32.227 36.021 32.8227 39.0136C33.4185 42.0061 34.889 44.7549 37.0482 46.9124C39.2075 49.0699 41.9586 50.5392 44.9536 51.1344C47.9485 51.7297 51.0529 51.4242 53.8742 50.2565C56.6954 49.0889 59.1067 47.1116 60.8032 44.5747C62.4998 42.0377 63.4053 39.0551 63.4053 36.0039C63.4053 31.9124 61.7786 27.9885 58.8831 25.0954C55.9876 22.2023 52.0605 20.577 47.9657 20.577V20.577ZM75.3898 78.6165C75.3303 74.1152 73.4995 69.8182 70.2935 66.6553C67.0876 63.4924 62.7642 61.7178 58.2587 61.7155H37.6726C33.1672 61.7178 28.8438 63.4924 25.6378 66.6553C22.4318 69.8182 20.601 74.1152 20.5415 78.6165C28.0663 85.3918 37.8364 89.1414 47.9657 89.1414C58.0949 89.1414 67.8651 85.3918 75.3898 78.6165V78.6165Z" fill="#8E8E8E"/>
</svg>
