<svg width="80" height="80" viewBox="0 0 80 80" fill="none" xmlns="http://www.w3.org/2000/svg">
<path fill-rule="evenodd" clip-rule="evenodd" d="M10 15C8.34766 15 7 16.3477 7 18V56C7 57.6523 8.34766 59 10 59H31.8945L31.0938 67H27C26.6406 66.9961 26.3047 67.1836 26.1211 67.4961C25.9414 67.8086 25.9414 68.1914 26.1211 68.5039C26.3047 68.8164 26.6406 69.0039 27 69H53C53.3594 69.0039 53.6953 68.8164 53.8789 68.5039C54.0586 68.1914 54.0586 67.8086 53.8789 67.4961C53.6953 67.1836 53.3594 66.9961 53 67H48.9062L48.1055 59H70C71.6523 59 73 57.6523 73 56V18C73 16.3477 71.6523 15 70 15H61L62 17H70C70.5508 17 71 17.4492 71 18V56C71 56.5508 70.5508 57 70 57H10C9.44922 57 9 56.5508 9 56V18C9 17.4492 9.44922 17 10 17H18L19 15H10ZM46 59H34L33 66H47L46 59Z" fill="black" stroke="black" stroke-width="0.5"/>
<path d="M40 6C28.4141 6 19 15.4141 19 27C19 31.0352 20.1641 34.7969 22.1406 38H19C17.8945 38 17 38.8945 17 40C17 41.1055 17.8945 42 19 42H61C62.1055 42 63 41.1055 63 40C63 38.8945 62.1055 38 61 38H57.8594C59.8359 34.7969 61 31.0352 61 27C61 15.4141 51.5859 6 40 6ZM40 8C50.5039 8 59 16.4961 59 27C59 32.043 57.0234 36.5977 53.8242 40H26.1758C22.9766 36.5977 21 32.043 21 27C21 16.4961 29.4961 8 40 8ZM40 11C39.4492 11 39 11.4492 39 12C39 12.5508 39.4492 13 40 13C40.5508 13 41 12.5508 41 12C41 11.4492 40.5508 11 40 11ZM34.2656 12.1406C34.1328 12.1406 34 12.1641 33.875 12.2188C33.3672 12.4297 33.125 13.0117 33.3359 13.5234C33.5469 14.0352 34.1328 14.2773 34.6406 14.0625C35.1523 13.8516 35.3945 13.2695 35.1836 12.7578C35.0312 12.3867 34.668 12.1445 34.2656 12.1406ZM45.7656 12.1406C45.3516 12.1328 44.9766 12.3789 44.8164 12.7578C44.6055 13.2695 44.8477 13.8516 45.3594 14.0625C45.8672 14.2773 46.4531 14.0352 46.6641 13.5234C46.875 13.0117 46.6328 12.4297 46.125 12.2188C46.0078 12.1719 45.8867 12.1445 45.7656 12.1406ZM29.4062 15.3906C29.1367 15.3906 28.875 15.4961 28.6875 15.6875C28.2969 16.0742 28.2969 16.7109 28.6875 17.0977C29.0742 17.4883 29.7109 17.4883 30.0977 17.0977C30.4883 16.7109 30.4883 16.0742 30.0977 15.6875C29.9141 15.5 29.668 15.3945 29.4062 15.3906ZM50.6211 15.3906C50.3516 15.3867 50.0898 15.4922 49.8984 15.6875C49.5078 16.0742 49.5078 16.7109 49.8984 17.0977C50.2891 17.4883 50.9219 17.4883 51.3125 17.0977C51.7031 16.7109 51.7031 16.0742 51.3125 15.6875C51.1289 15.5 50.8828 15.3984 50.6211 15.3906ZM39.4336 18.5898V19.9141C36.4727 20.1484 34.7344 21.7031 34.7344 24.1445C34.7344 26.2148 36.0156 27.582 38.3789 28.1289L39.4336 28.3711V31.8008C38.2617 31.6836 37.4531 30.9805 37.3906 30.0508H34.4648C34.4727 32.4766 36.3281 34.0156 39.4336 34.1914V35.4062H40.8086V34.1719C43.8945 33.9102 45.6523 32.3594 45.6523 29.8477C45.6523 27.707 44.4023 26.3984 41.8828 25.875L40.8086 25.668V22.3672C41.7852 22.5117 42.4883 23.2148 42.5156 24.0586H45.3711C45.3281 21.7812 43.5625 20.1797 40.8086 19.9258V18.5898H39.4336ZM26.1641 20.2617C25.75 20.25 25.375 20.4961 25.2188 20.875C25.0039 21.3867 25.2461 21.9727 25.7578 22.1836C26.2695 22.3945 26.8516 22.1523 27.0625 21.6406C27.2773 21.1328 27.0352 20.5469 26.5234 20.3359C26.4102 20.2891 26.2891 20.2617 26.1641 20.2617ZM53.8633 20.2617C53.7305 20.2578 53.5977 20.2852 53.4727 20.3359C52.9648 20.5469 52.7227 21.1328 52.9336 21.6406C53.1445 22.1523 53.7305 22.3945 54.2383 22.1836C54.75 21.9727 54.9922 21.3867 54.7812 20.875C54.6289 20.5078 54.2656 20.2617 53.8633 20.2617ZM39.4336 22.3594V25.3867C38.3008 25.1602 37.7031 24.6211 37.7031 23.8516C37.7031 23.0312 38.418 22.418 39.4336 22.3594ZM25 26C24.4492 26 24 26.4492 24 27C24 27.5508 24.4492 28 25 28C25.5508 28 26 27.5508 26 27C26 26.4492 25.5508 26 25 26ZM55 26C54.4492 26 54 26.4492 54 27C54 27.5508 54.4492 28 55 28C55.5508 28 56 27.5508 56 27C56 26.4492 55.5508 26 55 26ZM40.8125 28.6172C42.1172 28.8516 42.7422 29.3672 42.7461 30.207C42.7461 31.125 42.0234 31.7227 40.8125 31.8125V28.6172ZM26.1523 31.7383C26.0156 31.7383 25.8828 31.7617 25.7617 31.8125C25.25 32.0273 25.0078 32.6094 25.2188 33.1211C25.4297 33.6328 26.0156 33.875 26.5273 33.6602C27.0352 33.4492 27.2773 32.8672 27.0664 32.3594C26.9141 31.9844 26.5508 31.7422 26.1523 31.7383ZM53.8789 31.7383C53.4688 31.7305 53.0938 31.9766 52.9336 32.3555C52.7227 32.8672 52.9648 33.4492 53.4727 33.6602C53.9844 33.875 54.5703 33.6328 54.7812 33.1211C54.9922 32.6094 54.75 32.0273 54.2383 31.8125C54.125 31.7656 54.0039 31.7422 53.8789 31.7383ZM50.6211 36.6055C50.3516 36.6016 50.0898 36.707 49.9023 36.8984C49.5117 37.2891 49.5117 37.9219 49.9023 38.3125C50.2891 38.7031 50.9258 38.7031 51.3125 38.3125C51.7031 37.9219 51.7031 37.2891 51.3125 36.8984C51.1289 36.7148 50.8828 36.6094 50.6211 36.6055ZM29.4062 36.6094C29.1367 36.6016 28.875 36.707 28.6875 36.9023C28.2969 37.2891 28.2969 37.9258 28.6875 38.3125C29.0742 38.7031 29.7109 38.7031 30.0977 38.3125C30.4883 37.9258 30.4883 37.2891 30.0977 36.9023C29.9141 36.7148 29.668 36.6133 29.4062 36.6094Z" fill="url(#paint0_linear_339_958)"/>
<defs>
<linearGradient id="paint0_linear_339_958" x1="40" y1="8" x2="40" y2="38.1429" gradientUnits="userSpaceOnUse">
<stop offset="0.0001" stop-color="#FEDD22"/>
<stop offset="1" stop-color="#F4913F"/>
</linearGradient>
</defs>
</svg>
