<svg width="80" height="80" viewBox="0 0 80 80" fill="none" xmlns="http://www.w3.org/2000/svg">
<g clip-path="url(#clip0_339_971)">
<path fill-rule="evenodd" clip-rule="evenodd" d="M53.2422 1.11806C52.7588 1.18642 52.3389 1.5331 52.207 2.03114L50.5859 8.0663C50.5859 8.07322 50.5865 8.07953 50.5871 8.08544C50.5882 8.09621 50.5891 8.10567 50.5859 8.11513C36.2158 4.75575 21.0693 9.86806 11.6992 21.372C11.1865 22.0067 11.2012 22.9101 11.7383 23.5253C14.5752 26.7968 19.1064 28.1591 23.2715 26.9921L23.3203 26.9726L23.501 27.2948C24.668 29.3163 26.5576 30.7665 28.8135 31.372C29.5703 31.5722 30.332 31.6747 31.0938 31.6747C32.6074 31.6747 34.1064 31.2743 35.4492 30.4979L35.6006 30.4101L36.8652 32.3046C37.8711 33.8036 39.1699 35.0048 40.625 35.913L36.5283 51.1913C34.502 46.0595 29.502 42.4999 23.75 42.4999C16.167 42.4999 10 48.6669 10 56.2499C10 59.8144 11.3623 63.1591 13.7402 65.6786C13.1104 65.6151 12.4902 65.5175 11.875 65.3515L4.73633 63.4032C3.59863 63.0956 2.40723 63.33 1.47461 64.0429C0.53711 64.7606 0 65.8446 0 67.0263V76.2499C0 78.3153 1.68457 79.9999 3.75 79.9999H76.25C78.3154 79.9999 80 78.3153 80 76.2499V67.0263C80 65.8446 79.4629 64.7606 78.5254 64.0429C77.5879 63.3251 76.3965 63.0956 75.2637 63.4032L68.125 65.3515C66.0889 65.9081 63.9502 65.8788 61.9336 65.2733L55.7324 63.4179C53.6182 62.7831 51.3818 62.7831 49.2676 63.4179L43.2373 65.2294C41.8408 65.6444 40.4004 65.7567 38.9697 65.6249C38.9746 65.6141 38.98 65.6036 38.9854 65.5934C38.9896 65.5856 38.9938 65.578 38.9981 65.5704C39.0159 65.5382 39.0335 65.5065 39.043 65.4686L46.4648 37.7929C46.5648 37.7982 46.6641 37.8062 46.7633 37.8141C46.9353 37.8279 47.1068 37.8417 47.2803 37.8417C49.1357 37.8417 51.0107 37.4315 52.7686 36.5673L54.8047 35.5614L54.8877 35.7079C56.0596 37.7343 57.9492 39.1796 60.2051 39.7851C60.9619 39.9852 61.7236 40.0878 62.4805 40.0878C63.999 40.0878 65.498 39.6923 66.8457 38.911L67.1631 38.7304L67.1973 38.7645C69.3457 40.9569 72.2803 42.1435 75.2686 42.1435C76.4941 42.1435 77.7295 41.9384 78.9258 41.5282C79.6875 41.2597 80.1514 40.4882 80.0244 39.6874C77.666 25.0341 67.1094 13.037 52.9834 8.75966C52.9858 8.75234 52.9895 8.74623 52.9932 8.74013C52.9968 8.73402 53.0005 8.72792 53.0029 8.7206L54.6191 2.68056C54.7998 2.01161 54.3994 1.32802 53.7354 1.15224C53.5693 1.10341 53.4033 1.09364 53.2422 1.11806ZM41.9238 9.58974C43.4326 9.59462 44.9463 9.69716 46.46 9.89247C42.7344 12.6659 38.7207 18.8866 35 27.871L34.1992 28.3349C32.7539 29.1698 31.0693 29.3944 29.458 28.9599C27.8467 28.5302 26.499 27.495 25.6641 26.0497L25.3711 25.5272C27.3096 22.4071 29.5068 19.6679 31.9141 17.3778C32.417 16.8993 32.4365 16.1083 31.958 15.6054C31.4844 15.1073 30.6885 15.0878 30.1953 15.5663C27.5732 18.0565 25.2002 21.0497 23.1201 24.4384L22.5977 24.5849C19.585 25.4296 16.3232 24.5751 14.1016 22.3974C21.1084 14.1308 31.3623 9.55068 41.9238 9.58974ZM36.9824 10.664C36.8213 10.6835 36.6602 10.7323 36.5088 10.8202C35.6934 11.2792 34.873 11.8065 34.0723 12.3632C33.5107 12.7636 33.374 13.5448 33.7695 14.1063C34.0137 14.453 34.4043 14.6337 34.7949 14.6337C35.0439 14.6337 35.293 14.5604 35.5127 14.4091C36.2451 13.8915 36.9922 13.4179 37.7393 12.9931C38.3447 12.6513 38.5547 11.8895 38.2129 11.289C37.959 10.8397 37.4658 10.6102 36.9824 10.664ZM50.5811 10.7421C50.7764 10.7372 50.9668 10.7616 51.1475 10.8104C53.999 11.5722 55.918 19.4628 54.1553 33.0956L51.6602 34.3212C47.1875 36.5233 41.7188 35.0585 38.9453 30.913L37.3975 28.6083C42.3535 16.7138 47.583 10.8007 50.5811 10.7421ZM55.957 13.0809C61.9531 17.2558 65.7715 25.7958 66.1133 36.4452L65.6006 36.7431C64.1504 37.5829 62.4658 37.8026 60.8545 37.3681C59.2432 36.9384 57.8955 35.9032 57.0557 34.4579L56.6016 33.662C57.8027 24.5409 57.5439 17.4315 55.957 13.0809ZM62.4365 16.0692C70.1855 21.4647 75.6982 29.7802 77.4365 39.3651C74.4336 40.1415 71.1768 39.2577 68.9844 37.0116L68.6084 36.6259C68.3838 28.3349 66.1475 21.1767 62.4365 16.0692ZM42.9102 37.0507C43.2617 37.1825 43.623 37.2851 43.9844 37.3827L36.6309 64.8192C36.6029 64.9191 36.6043 65.0158 36.6058 65.1118C36.6061 65.1331 36.6064 65.1544 36.6064 65.1757L35.4639 64.8339L42.9102 37.0507ZM22.2998 45.1024C23.2031 46.245 23.916 47.495 24.4678 48.828C24.0869 49.1845 23.8037 49.6288 23.6377 50.122C19.3848 50.5907 15.4688 52.5536 12.5342 55.6395C12.8271 50.205 16.9775 45.7958 22.2998 45.1024ZM25.3809 45.1317C29.4043 45.7177 32.7783 48.4325 34.2285 52.1679C32.7881 51.3866 31.25 50.8153 29.6533 50.454C29.6509 50.4467 29.6509 50.4381 29.6509 50.429C29.6509 50.4198 29.6509 50.4101 29.6484 50.4003C29.4629 49.5849 28.9697 48.8915 28.2666 48.4472C27.8223 48.1688 27.334 48.0224 26.8262 47.9882C26.4209 46.997 25.957 46.0351 25.3809 45.1317ZM23.8818 52.6073C24.1309 53.0565 24.4824 53.4472 24.9316 53.7304C25.1562 53.872 25.3955 53.9745 25.6445 54.0526C25.8105 57.5585 24.7998 61.0155 22.793 63.8573L18.0664 65.2733C17.9004 65.3254 17.73 65.3601 17.5597 65.3949C17.4745 65.4122 17.3893 65.4296 17.3047 65.4491C15.0977 63.8964 13.54 61.6698 12.8711 59.121C15.4688 55.454 19.4678 53.1005 23.8818 52.6073ZM29.1309 52.9003C31.3135 53.3983 33.3643 54.3554 35.1758 55.7616C35.1953 55.7738 35.2148 55.7811 35.2344 55.7885C35.2539 55.7958 35.2734 55.8031 35.293 55.8153L33.0664 64.1161L30.7324 63.413C29.2578 62.9686 27.7246 62.8563 26.2109 63.0321C27.6465 60.2001 28.3203 57.0067 28.1396 53.789C28.5352 53.5644 28.8721 53.2616 29.1309 52.9003ZM27.5 65.4393C28.3496 65.4393 29.1943 65.5614 30.0195 65.8056L36.0547 67.6171C38.6328 68.3934 41.3672 68.3934 43.9502 67.6171L49.9854 65.8056C51.6309 65.3124 53.3691 65.3124 55.0146 65.8056L61.2109 67.6708C63.6816 68.4081 66.2939 68.4423 68.7842 67.7636L75.9229 65.8153C76.2988 65.7128 76.6992 65.7909 77.0117 66.0302C77.3242 66.2645 77.5 66.6259 77.5 67.0214V69.9999V74.9999V76.2499C77.5 76.9384 76.9385 77.4999 76.25 77.4999H3.75C3.06152 77.4999 2.5 76.9384 2.5 76.2499V74.9999V69.9999V67.0263C2.5 66.6308 2.68066 66.2694 2.99316 66.0302C3.21289 65.8593 3.47656 65.7714 3.75 65.7714C3.85742 65.7714 3.96973 65.786 4.08203 65.8202L11.2207 67.7684C13.1641 68.2958 15.1807 68.3739 17.1484 68.0419C17.2607 68.0272 17.3682 68.0028 17.4805 67.9638C17.5606 67.9476 17.6411 67.9317 17.7217 67.9158C18.0784 67.8454 18.4386 67.7743 18.7891 67.6708L24.9854 65.8056C25.8105 65.5614 26.6553 65.4393 27.5 65.4393ZM8.75 69.9999C8.05664 69.9999 7.5 70.5614 7.5 71.2499V73.7499C7.5 74.4384 8.05664 74.9999 8.75 74.9999C9.44336 74.9999 10 74.4384 10 73.7499V71.2499C10 70.5614 9.44336 69.9999 8.75 69.9999ZM15 69.9999C14.3066 69.9999 13.75 70.5614 13.75 71.2499V73.7499C13.75 74.4384 14.3066 74.9999 15 74.9999C15.6934 74.9999 16.25 74.4384 16.25 73.7499V71.2499C16.25 70.5614 15.6934 69.9999 15 69.9999ZM21.25 69.9999C20.5566 69.9999 20 70.5614 20 71.2499V73.7499C20 74.4384 20.5566 74.9999 21.25 74.9999C21.9434 74.9999 22.5 74.4384 22.5 73.7499V71.2499C22.5 70.5614 21.9434 69.9999 21.25 69.9999ZM27.5 69.9999C26.8066 69.9999 26.25 70.5614 26.25 71.2499V73.7499C26.25 74.4384 26.8066 74.9999 27.5 74.9999C28.1934 74.9999 28.75 74.4384 28.75 73.7499V71.2499C28.75 70.5614 28.1934 69.9999 27.5 69.9999ZM33.75 69.9999C33.0566 69.9999 32.5 70.5614 32.5 71.2499V73.7499C32.5 74.4384 33.0566 74.9999 33.75 74.9999C34.4434 74.9999 35 74.4384 35 73.7499V71.2499C35 70.5614 34.4434 69.9999 33.75 69.9999ZM40 69.9999C39.3066 69.9999 38.75 70.5614 38.75 71.2499V73.7499C38.75 74.4384 39.3066 74.9999 40 74.9999C40.6934 74.9999 41.25 74.4384 41.25 73.7499V71.2499C41.25 70.5614 40.6934 69.9999 40 69.9999ZM46.25 69.9999C45.5566 69.9999 45 70.5614 45 71.2499V73.7499C45 74.4384 45.5566 74.9999 46.25 74.9999C46.9434 74.9999 47.5 74.4384 47.5 73.7499V71.2499C47.5 70.5614 46.9434 69.9999 46.25 69.9999ZM52.5 69.9999C51.8066 69.9999 51.25 70.5614 51.25 71.2499V73.7499C51.25 74.4384 51.8066 74.9999 52.5 74.9999C53.1934 74.9999 53.75 74.4384 53.75 73.7499V71.2499C53.75 70.5614 53.1934 69.9999 52.5 69.9999ZM58.75 69.9999C58.0566 69.9999 57.5 70.5614 57.5 71.2499V73.7499C57.5 74.4384 58.0566 74.9999 58.75 74.9999C59.4434 74.9999 60 74.4384 60 73.7499V71.2499C60 70.5614 59.4434 69.9999 58.75 69.9999ZM65 69.9999C64.3066 69.9999 63.75 70.5614 63.75 71.2499V73.7499C63.75 74.4384 64.3066 74.9999 65 74.9999C65.6934 74.9999 66.25 74.4384 66.25 73.7499V71.2499C66.25 70.5614 65.6934 69.9999 65 69.9999ZM71.25 69.9999C70.5566 69.9999 70 70.5614 70 71.2499V73.7499C70 74.4384 70.5566 74.9999 71.25 74.9999C71.9434 74.9999 72.5 74.4384 72.5 73.7499V71.2499C72.5 70.5614 71.9434 69.9999 71.25 69.9999Z" fill="black"/>
<path fill-rule="evenodd" clip-rule="evenodd" d="M36.5283 51.1914C34.502 46.0596 29.502 42.5 23.75 42.5C16.167 42.5 10 48.667 10 56.25C10 59.8145 11.3623 63.1592 13.7402 65.6787L17.3047 65.4492C15.0977 63.8965 13.54 61.6699 12.8711 59.1211C15.4688 55.4541 19.4678 53.1006 23.8818 52.6074C24.1309 53.0566 24.4824 53.4473 24.9316 53.7305C25.1562 53.8721 25.3955 53.9746 25.6445 54.0527C25.8105 57.5586 24.7998 61.0156 22.793 63.8574L26.2109 63.0322C27.6465 60.2002 28.3203 57.0068 28.1396 53.7891C28.5352 53.5645 28.8721 53.2617 29.1309 52.9004C31.3135 53.3984 33.3643 54.3555 35.1758 55.7617C35.1953 55.7739 35.2148 55.7812 35.2344 55.7886C35.2539 55.7959 35.2734 55.8032 35.293 55.8154L36.5283 51.1914ZM24.4678 48.8281C23.916 47.4951 23.2031 46.2451 22.2998 45.1025C16.9775 45.7959 12.8271 50.2051 12.5342 55.6396C15.4687 52.5537 19.3848 50.5908 23.6377 50.1221C23.8037 49.6289 24.0869 49.1846 24.4678 48.8281ZM34.2285 52.168C32.7783 48.4326 29.4043 45.7178 25.3809 45.1318C25.957 46.0352 26.4209 46.9971 26.8262 47.9883C27.334 48.0225 27.8223 48.1689 28.2666 48.4473C28.9697 48.8916 29.4629 49.585 29.6484 50.4004C29.6509 50.4102 29.6509 50.4199 29.6509 50.4291C29.6509 50.4382 29.6509 50.4468 29.6533 50.4541C31.25 50.8154 32.7881 51.3867 34.2285 52.168Z" fill="url(#paint0_linear_339_971)"/>
</g>
<defs>
<linearGradient id="paint0_linear_339_971" x1="23.2642" y1="43.7877" x2="23.2642" y2="63.1953" gradientUnits="userSpaceOnUse">
<stop offset="0.0001" stop-color="#FEDD22"/>
<stop offset="1" stop-color="#F4913F"/>
</linearGradient>
<clipPath id="clip0_339_971">
<rect width="80" height="80" fill="white"/>
</clipPath>
</defs>
</svg>
