<svg width="80" height="80" viewBox="0 0 80 80" fill="none" xmlns="http://www.w3.org/2000/svg">
<path d="M2.5 35.625C1.43555 35.625 0.625 34.8145 0.625 33.75V21.25C0.625 16.748 4.24805 13.125 8.75 13.125L16.875 13.125C17.9395 13.125 17.5 13.9355 17.5 15C17.5 16.0645 17.5645 16.875 16.5 16.875H8.75C6.31348 16.875 4.375 18.8135 4.375 21.25V33.75C4.375 34.8145 3.56445 35.625 2.5 35.625Z" fill="black"/>
<path d="M63.125 21.875C62.0605 21.875 61.25 21.0645 61.25 20V19.375C61.25 11.123 54.5019 4.375 46.25 4.375C44.3115 4.375 42.4365 4.75098 40.6884 5.43945C39.7509 5.81055 38.623 5.37598 38.2519 4.375C37.8759 3.37402 38.3105 2.31445 39.3115 1.93848C41.499 1.06445 43.8769 0.625 46.25 0.625C56.5625 0.625 65 9.0625 65 19.375V20C65 21.0645 64.1894 21.875 63.125 21.875Z" fill="black"/>
<path d="M50.625 21.875C49.5605 21.875 48.75 21.0645 48.75 20V19.375C48.75 11.123 42.002 4.375 33.75 4.375C25.498 4.375 18.75 11.123 18.75 19.375V20C18.75 21.0645 17.9395 21.875 16.875 21.875C15.8105 21.875 15 21.0645 15 20V19.375C15 9.0625 23.4375 0.625 33.75 0.625C44.0625 0.625 52.5 9.0625 52.5 19.375V20C52.5 21.0645 51.6895 21.875 50.625 21.875Z" fill="black"/>
<path d="M33.6865 23.7285C32.876 23.7285 32.251 23.1621 32.124 22.415C31.5625 22.2246 31.001 21.9121 30.5615 21.4775C30.127 21.0381 29.6875 20.4766 29.4385 19.8516C29.0625 19.041 29.4385 18.1621 30.249 17.791C31.001 17.4785 32.002 17.8496 32.3145 18.6016C32.4365 18.8506 32.5635 19.041 32.6855 19.1631C32.8125 19.29 32.998 19.3535 33.125 19.4121C33.5645 19.5391 34.1895 19.5391 34.5605 19.4121C34.751 19.3535 34.873 19.29 34.9365 19.1631C35.0635 19.041 35.127 18.9141 35.1855 18.7285C35.249 18.5381 35.3125 18.2891 35.3125 18.1035C35.3125 17.7275 35.249 17.5371 35.1855 17.4785C35.127 17.3516 35 17.2246 34.8145 17.1025C34.624 16.9756 34.375 16.8535 34.126 16.79C33.75 16.6631 33.374 16.5996 32.998 16.4775C32.5635 16.3506 32.124 16.2285 31.748 16.0381C31.25 15.8525 30.8105 15.6035 30.4395 15.2275C30 14.8516 29.6875 14.4121 29.4385 13.9141C29.1895 13.416 29.0625 12.7275 29.0625 11.9756C29.0625 11.4141 29.1895 10.916 29.375 10.4131C29.5605 9.91504 29.873 9.41211 30.249 8.97754C30.625 8.53809 31.123 8.22559 31.748 7.97656C31.875 7.91309 32.0605 7.84961 32.1875 7.84961C32.3145 7.16602 32.9395 6.59961 33.75 6.59961C34.502 6.59961 35.127 7.16602 35.3125 7.84961C35.498 7.91309 35.625 7.97656 35.8105 8.04004C36.377 8.28906 36.875 8.66504 37.3145 9.16308C37.6855 9.60254 37.998 10.1006 38.125 10.7256C38.252 11.1016 38.1885 11.541 37.998 11.9121C37.8125 12.2881 37.5 12.5371 37.0605 12.6641C36.9385 12.7275 36.748 12.7275 36.5625 12.7275C35.874 12.7275 35.249 12.2881 35.0635 11.6631C35 11.4775 34.9365 11.3506 34.8145 11.2285C34.751 11.1016 34.624 11.0381 34.4385 10.9746C34.0625 10.7891 33.3105 10.7891 32.9395 10.9746C32.749 11.0381 32.627 11.165 32.5 11.2285C32.373 11.3506 32.3145 11.4775 32.251 11.5996C32.1875 11.79 32.1875 11.9121 32.1875 12.1025C32.1875 12.5371 32.251 12.6641 32.251 12.7275C32.3145 12.8496 32.373 12.9131 32.4365 12.9766C32.5635 13.1035 32.6855 13.1621 32.876 13.2256C33.1885 13.3525 33.501 13.4746 33.8135 13.5381C34.248 13.665 34.624 13.7871 35 13.9141C35.5615 14.0996 36.0645 14.29 36.499 14.6025C37.0605 14.9785 37.5 15.4131 37.8125 15.9746C38.1885 16.5996 38.374 17.3516 38.374 18.2256C38.374 18.7871 38.3105 19.3535 38.125 19.8516C37.9395 20.4131 37.627 20.9746 37.251 21.4141C36.8115 21.8535 36.3135 22.2246 35.752 22.4785C35.5615 22.5371 35.376 22.6006 35.1855 22.6641C35.0635 23.1621 34.4385 23.7285 33.6865 23.7285Z" fill="url(#paint0_linear_339_977)"/>
<path d="M74.375 65V40H71.25C64.375 40 59.0625 45.625 59.0625 52.5C59.0625 59.375 64.375 65 71.25 65H74.375Z" fill="url(#paint1_linear_339_977)"/>
<path d="M68.125 79.375H8.75C4.24805 79.375 0.625 75.752 0.625 71.25V27.5C0.625 26.4355 1.43555 25.625 2.5 25.625C3.56445 25.625 4.375 26.4355 4.375 27.5V71.25C4.375 73.6865 6.31348 75.625 8.75 75.625H68.125C70.5615 75.625 72.5 73.6865 72.5 71.25V33.75C72.5 31.3135 70.5615 29.375 68.125 29.375H11.875C10.8105 29.375 10 28.5645 10 27.5C10 26.4355 10.8105 25.625 11.875 25.625H68.125C72.627 25.625 76.25 29.248 76.25 33.75V71.25C76.25 75.752 72.627 79.375 68.125 79.375Z" fill="black"/>
<path d="M77.5 58.75H71.25C67.8125 58.75 65 55.9375 65 52.5C65 49.0625 67.8125 46.25 71.25 46.25H77.5V58.75Z" fill="white"/>
<path d="M77.5 60.625H71.25C66.748 60.625 63.125 57.002 63.125 52.5C63.125 47.998 66.748 44.375 71.25 44.375H77.5C78.5645 44.375 79.375 45.1855 79.375 46.25V58.75C79.375 59.8145 78.5645 60.625 77.5 60.625ZM71.25 48.125C68.8135 48.125 66.875 50.0635 66.875 52.5C66.875 54.9365 68.8135 56.875 71.25 56.875H75.625V48.125H71.25Z" fill="black"/>
<defs>
<linearGradient id="paint0_linear_339_977" x1="33.7183" y1="7.55122" x2="33.7183" y2="21.8933" gradientUnits="userSpaceOnUse">
<stop offset="0.0001" stop-color="#FEDD22"/>
<stop offset="1" stop-color="#F4913F"/>
</linearGradient>
<linearGradient id="paint1_linear_339_977" x1="66.7187" y1="41.3889" x2="66.7187" y2="62.3214" gradientUnits="userSpaceOnUse">
<stop offset="0.0001" stop-color="#FEDD22"/>
<stop offset="1" stop-color="#F4913F"/>
</linearGradient>
</defs>
</svg>
