<svg width="24" height="24" viewBox="0 0 24 24" fill="none" xmlns="http://www.w3.org/2000/svg">
<path d="M7.29357 10.7072L11.2936 14.7072C11.4811 14.8947 11.7354 15 12.0006 15C12.2657 15 12.52 14.8947 12.7076 14.7072L16.7076 10.7072C16.8897 10.5186 16.9905 10.266 16.9882 10.0038C16.986 9.74161 16.8808 9.49079 16.6954 9.30539C16.51 9.11998 16.2592 9.01481 15.997 9.01253C15.7348 9.01025 15.4822 9.11104 15.2936 9.2932L12.0006 12.5862L8.70757 9.2932C8.61532 9.19769 8.50498 9.12151 8.38297 9.0691C8.26097 9.01669 8.12975 8.98911 7.99697 8.98795C7.86419 8.9868 7.73251 9.0121 7.60962 9.06238C7.48672 9.11266 7.37507 9.18692 7.28117 9.28081C7.18728 9.3747 7.11303 9.48635 7.06275 9.60925C7.01247 9.73215 6.98717 9.86383 6.98832 9.9966C6.98947 10.1294 7.01706 10.2606 7.06947 10.3826C7.12188 10.5046 7.19806 10.615 7.29357 10.7072Z" fill="#8E8E8E"/>
</svg>
