<svg width="72" height="48" viewBox="0 0 72 48" fill="none" xmlns="http://www.w3.org/2000/svg">
<g filter="url(#filter0_b_339_323)">
<path d="M6.5459 23.9997L32.7277 7.6362L28.9095 24.5453L32.7277 40.9089L19.6368 33.2726L6.5459 23.9997Z" fill="black" fill-opacity="0.2"/>
</g>
<path d="M34.1901 2.65722C35.7234 1.70007 37.641 3.10533 37.187 4.85491L32.3494 23.4977C32.2639 23.8271 32.2639 24.1729 32.3494 24.5023L37.187 43.1451C37.641 44.8947 35.7253 46.3012 34.192 45.344L19.2235 36L2.71798 25.6966C1.46341 24.9134 1.46371 23.0864 2.71827 22.3032C14.6798 14.8363 22.5681 9.91213 34.1901 2.65722ZM28.4093 24.5021C28.3239 24.1728 28.3239 23.8272 28.4093 23.4979L31.0887 13.1662C31.5422 11.4174 29.6282 10.0112 28.095 10.9668L9.90481 22.3026C8.64852 23.0855 8.64852 24.9145 9.90481 25.6974L28.095 37.0332C29.6282 37.9888 31.5422 36.5826 31.0887 34.8338L28.4093 24.5021Z" fill="url(#paint0_linear_339_323)"/>
<path d="M56.8877 15.4839C57.4796 15.2494 58.1479 15.3107 58.6872 15.649L69.2994 22.3054C70.549 23.0893 70.549 24.9101 69.2994 25.694L58.6872 32.3505C58.1479 32.6888 57.4796 32.7501 56.8877 32.5155L40.0891 25.8591C38.4048 25.1917 38.4048 22.8078 40.0891 22.1404L56.8877 15.4839Z" fill="url(#paint1_linear_339_323)"/>
<defs>
<filter id="filter0_b_339_323" x="0.545898" y="1.63623" width="38.1816" height="45.2727" filterUnits="userSpaceOnUse" color-interpolation-filters="sRGB">
<feFlood flood-opacity="0" result="BackgroundImageFix"/>
<feGaussianBlur in="BackgroundImage" stdDeviation="3"/>
<feComposite in2="SourceAlpha" operator="in" result="effect1_backgroundBlur_339_323"/>
<feBlend mode="normal" in="SourceGraphic" in2="effect1_backgroundBlur_339_323" result="shape"/>
</filter>
<linearGradient id="paint0_linear_339_323" x1="19.2235" y1="2.66667" x2="19.2235" y2="42.8571" gradientUnits="userSpaceOnUse">
<stop offset="0.0001" stop-color="#FEDD22"/>
<stop offset="1" stop-color="#F4913F"/>
</linearGradient>
<linearGradient id="paint1_linear_339_323" x1="53.6986" y1="16.0985" x2="53.6986" y2="30.9839" gradientUnits="userSpaceOnUse">
<stop offset="0.0001" stop-color="#FEDD22"/>
<stop offset="1" stop-color="#F4913F"/>
</linearGradient>
</defs>
</svg>
